<mxfile host="app.diagrams.net" agent="Mozilla/5.0 (Windows NT 10.0; Win64; x64) AppleWebKit/537.36 (KHTML, like Gecko) Chrome/128.0.0.0 YaBrowser/24.10.0.0 Safari/537.36" version="24.8.0" pages="2">
  <diagram name="Страница — 1" id="wFznyLI3BZfrtugTpNXn">
    <mxGraphModel dx="1791" dy="769" grid="1" gridSize="10" guides="1" tooltips="1" connect="1" arrows="1" fold="1" page="1" pageScale="1" pageWidth="827" pageHeight="1169" math="0" shadow="0">
      <root>
        <mxCell id="0" />
        <mxCell id="1" parent="0" />
        <mxCell id="FTGoRy-41MmsnWu28Xwo-3" value="Остановка" style="swimlane;fontStyle=0;childLayout=stackLayout;horizontal=1;startSize=26;horizontalStack=0;resizeParent=1;resizeParentMax=0;resizeLast=0;collapsible=1;marginBottom=0;align=center;fontSize=14;" vertex="1" parent="1">
          <mxGeometry x="20" y="30" width="160" height="86" as="geometry" />
        </mxCell>
        <mxCell id="FTGoRy-41MmsnWu28Xwo-18" value="*Название станции" style="text;strokeColor=none;fillColor=none;spacingLeft=4;spacingRight=4;overflow=hidden;rotatable=0;points=[[0,0.5],[1,0.5]];portConstraint=eastwest;fontSize=12;whiteSpace=wrap;html=1;" vertex="1" parent="FTGoRy-41MmsnWu28Xwo-3">
          <mxGeometry y="26" width="160" height="30" as="geometry" />
        </mxCell>
        <mxCell id="FTGoRy-41MmsnWu28Xwo-4" value="Адрес" style="text;strokeColor=none;fillColor=none;spacingLeft=4;spacingRight=4;overflow=hidden;rotatable=0;points=[[0,0.5],[1,0.5]];portConstraint=eastwest;fontSize=12;whiteSpace=wrap;html=1;" vertex="1" parent="FTGoRy-41MmsnWu28Xwo-3">
          <mxGeometry y="56" width="160" height="30" as="geometry" />
        </mxCell>
        <mxCell id="FTGoRy-41MmsnWu28Xwo-11" value="Маршрут" style="swimlane;fontStyle=0;childLayout=stackLayout;horizontal=1;startSize=26;horizontalStack=0;resizeParent=1;resizeParentMax=0;resizeLast=0;collapsible=1;marginBottom=0;align=center;fontSize=14;" vertex="1" parent="1">
          <mxGeometry x="-10" y="241" width="160" height="206" as="geometry" />
        </mxCell>
        <mxCell id="FTGoRy-41MmsnWu28Xwo-12" value="*Номер маршрута" style="text;strokeColor=none;fillColor=none;spacingLeft=4;spacingRight=4;overflow=hidden;rotatable=0;points=[[0,0.5],[1,0.5]];portConstraint=eastwest;fontSize=12;whiteSpace=wrap;html=1;" vertex="1" parent="FTGoRy-41MmsnWu28Xwo-11">
          <mxGeometry y="26" width="160" height="30" as="geometry" />
        </mxCell>
        <mxCell id="FTGoRy-41MmsnWu28Xwo-13" value="Название маршрута" style="text;strokeColor=none;fillColor=none;spacingLeft=4;spacingRight=4;overflow=hidden;rotatable=0;points=[[0,0.5],[1,0.5]];portConstraint=eastwest;fontSize=12;whiteSpace=wrap;html=1;" vertex="1" parent="FTGoRy-41MmsnWu28Xwo-11">
          <mxGeometry y="56" width="160" height="30" as="geometry" />
        </mxCell>
        <mxCell id="FTGoRy-41MmsnWu28Xwo-17" value="Время выезда" style="text;strokeColor=none;fillColor=none;spacingLeft=4;spacingRight=4;overflow=hidden;rotatable=0;points=[[0,0.5],[1,0.5]];portConstraint=eastwest;fontSize=12;whiteSpace=wrap;html=1;" vertex="1" parent="FTGoRy-41MmsnWu28Xwo-11">
          <mxGeometry y="86" width="160" height="30" as="geometry" />
        </mxCell>
        <mxCell id="FTGoRy-41MmsnWu28Xwo-16" value="Время прибтия" style="text;strokeColor=none;fillColor=none;spacingLeft=4;spacingRight=4;overflow=hidden;rotatable=0;points=[[0,0.5],[1,0.5]];portConstraint=eastwest;fontSize=12;whiteSpace=wrap;html=1;" vertex="1" parent="FTGoRy-41MmsnWu28Xwo-11">
          <mxGeometry y="116" width="160" height="30" as="geometry" />
        </mxCell>
        <mxCell id="FTGoRy-41MmsnWu28Xwo-14" value="Время в пути" style="text;strokeColor=none;fillColor=none;spacingLeft=4;spacingRight=4;overflow=hidden;rotatable=0;points=[[0,0.5],[1,0.5]];portConstraint=eastwest;fontSize=12;whiteSpace=wrap;html=1;" vertex="1" parent="FTGoRy-41MmsnWu28Xwo-11">
          <mxGeometry y="146" width="160" height="30" as="geometry" />
        </mxCell>
        <mxCell id="FTGoRy-41MmsnWu28Xwo-19" value="Стоимость перевозки" style="text;strokeColor=none;fillColor=none;spacingLeft=4;spacingRight=4;overflow=hidden;rotatable=0;points=[[0,0.5],[1,0.5]];portConstraint=eastwest;fontSize=12;whiteSpace=wrap;html=1;" vertex="1" parent="FTGoRy-41MmsnWu28Xwo-11">
          <mxGeometry y="176" width="160" height="30" as="geometry" />
        </mxCell>
        <mxCell id="FTGoRy-41MmsnWu28Xwo-20" value="Автобус" style="swimlane;fontStyle=0;childLayout=stackLayout;horizontal=1;startSize=26;horizontalStack=0;resizeParent=1;resizeParentMax=0;resizeLast=0;collapsible=1;marginBottom=0;align=center;fontSize=14;" vertex="1" parent="1">
          <mxGeometry x="-330" y="316" width="160" height="56" as="geometry" />
        </mxCell>
        <mxCell id="FTGoRy-41MmsnWu28Xwo-21" value="*Гос.Номер" style="text;strokeColor=none;fillColor=none;spacingLeft=4;spacingRight=4;overflow=hidden;rotatable=0;points=[[0,0.5],[1,0.5]];portConstraint=eastwest;fontSize=12;whiteSpace=wrap;html=1;" vertex="1" parent="FTGoRy-41MmsnWu28Xwo-20">
          <mxGeometry y="26" width="160" height="30" as="geometry" />
        </mxCell>
        <mxCell id="FTGoRy-41MmsnWu28Xwo-24" value="Модель" style="swimlane;fontStyle=0;childLayout=stackLayout;horizontal=1;startSize=26;horizontalStack=0;resizeParent=1;resizeParentMax=0;resizeLast=0;collapsible=1;marginBottom=0;align=center;fontSize=14;" vertex="1" parent="1">
          <mxGeometry x="-330" y="410" width="160" height="86" as="geometry" />
        </mxCell>
        <mxCell id="FTGoRy-41MmsnWu28Xwo-25" value="*Название модели" style="text;strokeColor=none;fillColor=none;spacingLeft=4;spacingRight=4;overflow=hidden;rotatable=0;points=[[0,0.5],[1,0.5]];portConstraint=eastwest;fontSize=12;whiteSpace=wrap;html=1;" vertex="1" parent="FTGoRy-41MmsnWu28Xwo-24">
          <mxGeometry y="26" width="160" height="30" as="geometry" />
        </mxCell>
        <mxCell id="FTGoRy-41MmsnWu28Xwo-26" value="Количество мест" style="text;strokeColor=none;fillColor=none;spacingLeft=4;spacingRight=4;overflow=hidden;rotatable=0;points=[[0,0.5],[1,0.5]];portConstraint=eastwest;fontSize=12;whiteSpace=wrap;html=1;" vertex="1" parent="FTGoRy-41MmsnWu28Xwo-24">
          <mxGeometry y="56" width="160" height="30" as="geometry" />
        </mxCell>
        <mxCell id="FTGoRy-41MmsnWu28Xwo-28" value="Бренд" style="swimlane;fontStyle=0;childLayout=stackLayout;horizontal=1;startSize=26;horizontalStack=0;resizeParent=1;resizeParentMax=0;resizeLast=0;collapsible=1;marginBottom=0;align=center;fontSize=14;" vertex="1" parent="1">
          <mxGeometry x="-330" y="540" width="160" height="56" as="geometry" />
        </mxCell>
        <mxCell id="FTGoRy-41MmsnWu28Xwo-29" value="*Марка" style="text;strokeColor=none;fillColor=none;spacingLeft=4;spacingRight=4;overflow=hidden;rotatable=0;points=[[0,0.5],[1,0.5]];portConstraint=eastwest;fontSize=12;whiteSpace=wrap;html=1;" vertex="1" parent="FTGoRy-41MmsnWu28Xwo-28">
          <mxGeometry y="26" width="160" height="30" as="geometry" />
        </mxCell>
        <mxCell id="FTGoRy-41MmsnWu28Xwo-32" value="Рейс" style="swimlane;fontStyle=0;childLayout=stackLayout;horizontal=1;startSize=26;horizontalStack=0;resizeParent=1;resizeParentMax=0;resizeLast=0;collapsible=1;marginBottom=0;align=center;fontSize=14;" vertex="1" parent="1">
          <mxGeometry x="-10" y="484" width="160" height="56" as="geometry" />
        </mxCell>
        <mxCell id="FTGoRy-41MmsnWu28Xwo-33" value="*Дата выезда" style="text;strokeColor=none;fillColor=none;spacingLeft=4;spacingRight=4;overflow=hidden;rotatable=0;points=[[0,0.5],[1,0.5]];portConstraint=eastwest;fontSize=12;whiteSpace=wrap;html=1;" vertex="1" parent="FTGoRy-41MmsnWu28Xwo-32">
          <mxGeometry y="26" width="160" height="30" as="geometry" />
        </mxCell>
        <mxCell id="FTGoRy-41MmsnWu28Xwo-36" value="Пассажир" style="swimlane;fontStyle=0;childLayout=stackLayout;horizontal=1;startSize=26;horizontalStack=0;resizeParent=1;resizeParentMax=0;resizeLast=0;collapsible=1;marginBottom=0;align=center;fontSize=14;" vertex="1" parent="1">
          <mxGeometry x="280" y="250" width="160" height="146" as="geometry" />
        </mxCell>
        <mxCell id="FTGoRy-41MmsnWu28Xwo-63" value="*ID Пассажира" style="text;strokeColor=none;fillColor=none;spacingLeft=4;spacingRight=4;overflow=hidden;rotatable=0;points=[[0,0.5],[1,0.5]];portConstraint=eastwest;fontSize=12;whiteSpace=wrap;html=1;" vertex="1" parent="FTGoRy-41MmsnWu28Xwo-36">
          <mxGeometry y="26" width="160" height="30" as="geometry" />
        </mxCell>
        <mxCell id="FTGoRy-41MmsnWu28Xwo-37" value="ФИО" style="text;strokeColor=none;fillColor=none;spacingLeft=4;spacingRight=4;overflow=hidden;rotatable=0;points=[[0,0.5],[1,0.5]];portConstraint=eastwest;fontSize=12;whiteSpace=wrap;html=1;" vertex="1" parent="FTGoRy-41MmsnWu28Xwo-36">
          <mxGeometry y="56" width="160" height="30" as="geometry" />
        </mxCell>
        <mxCell id="FTGoRy-41MmsnWu28Xwo-38" value="Контактная инф-ция" style="text;strokeColor=none;fillColor=none;spacingLeft=4;spacingRight=4;overflow=hidden;rotatable=0;points=[[0,0.5],[1,0.5]];portConstraint=eastwest;fontSize=12;whiteSpace=wrap;html=1;" vertex="1" parent="FTGoRy-41MmsnWu28Xwo-36">
          <mxGeometry y="86" width="160" height="30" as="geometry" />
        </mxCell>
        <mxCell id="FTGoRy-41MmsnWu28Xwo-39" value="город проживания" style="text;strokeColor=none;fillColor=none;spacingLeft=4;spacingRight=4;overflow=hidden;rotatable=0;points=[[0,0.5],[1,0.5]];portConstraint=eastwest;fontSize=12;whiteSpace=wrap;html=1;" vertex="1" parent="FTGoRy-41MmsnWu28Xwo-36">
          <mxGeometry y="116" width="160" height="30" as="geometry" />
        </mxCell>
        <mxCell id="FTGoRy-41MmsnWu28Xwo-48" value="" style="edgeStyle=entityRelationEdgeStyle;fontSize=12;html=1;endArrow=ERoneToMany;rounded=0;entryX=1;entryY=0.5;entryDx=0;entryDy=0;" edge="1" parent="1" target="FTGoRy-41MmsnWu28Xwo-21">
          <mxGeometry width="100" height="100" relative="1" as="geometry">
            <mxPoint x="-170" y="450" as="sourcePoint" />
            <mxPoint x="-70" y="350" as="targetPoint" />
          </mxGeometry>
        </mxCell>
        <mxCell id="FTGoRy-41MmsnWu28Xwo-50" value="" style="edgeStyle=entityRelationEdgeStyle;fontSize=12;html=1;endArrow=ERoneToMany;rounded=0;entryX=1;entryY=0.5;entryDx=0;entryDy=0;" edge="1" parent="1" target="FTGoRy-41MmsnWu28Xwo-26">
          <mxGeometry width="100" height="100" relative="1" as="geometry">
            <mxPoint x="-170" y="580" as="sourcePoint" />
            <mxPoint x="-70" y="480" as="targetPoint" />
          </mxGeometry>
        </mxCell>
        <mxCell id="FTGoRy-41MmsnWu28Xwo-51" value="" style="edgeStyle=entityRelationEdgeStyle;fontSize=12;html=1;endArrow=ERmany;startArrow=ERmany;rounded=0;entryX=0;entryY=0;entryDx=0;entryDy=0;entryPerimeter=0;exitX=1;exitY=0.25;exitDx=0;exitDy=0;" edge="1" parent="1" source="FTGoRy-41MmsnWu28Xwo-20" target="FTGoRy-41MmsnWu28Xwo-33">
          <mxGeometry width="100" height="100" relative="1" as="geometry">
            <mxPoint x="-120" y="600" as="sourcePoint" />
            <mxPoint x="-20" y="500" as="targetPoint" />
          </mxGeometry>
        </mxCell>
        <mxCell id="FTGoRy-41MmsnWu28Xwo-52" value="" style="edgeStyle=entityRelationEdgeStyle;fontSize=12;html=1;endArrow=ERoneToMany;rounded=0;entryX=1;entryY=0.5;entryDx=0;entryDy=0;exitX=1;exitY=0.5;exitDx=0;exitDy=0;" edge="1" parent="1" source="FTGoRy-41MmsnWu28Xwo-14" target="FTGoRy-41MmsnWu28Xwo-33">
          <mxGeometry width="100" height="100" relative="1" as="geometry">
            <mxPoint x="180" y="380" as="sourcePoint" />
            <mxPoint x="280" y="280" as="targetPoint" />
          </mxGeometry>
        </mxCell>
        <mxCell id="FTGoRy-41MmsnWu28Xwo-53" value="*" style="text;html=1;align=center;verticalAlign=middle;resizable=0;points=[];autosize=1;strokeColor=none;fillColor=none;" vertex="1" parent="1">
          <mxGeometry x="150" y="497" width="30" height="30" as="geometry" />
        </mxCell>
        <mxCell id="FTGoRy-41MmsnWu28Xwo-55" value="*" style="text;html=1;align=center;verticalAlign=middle;resizable=0;points=[];autosize=1;strokeColor=none;fillColor=none;" vertex="1" parent="1">
          <mxGeometry x="-10" y="50" width="30" height="30" as="geometry" />
        </mxCell>
        <mxCell id="FTGoRy-41MmsnWu28Xwo-56" value="" style="edgeStyle=entityRelationEdgeStyle;fontSize=12;html=1;endArrow=ERoneToMany;rounded=0;exitX=0;exitY=0;exitDx=0;exitDy=0;entryX=0;entryY=0.5;entryDx=0;entryDy=0;" edge="1" parent="1" source="FTGoRy-41MmsnWu28Xwo-11" target="FTGoRy-41MmsnWu28Xwo-4">
          <mxGeometry width="100" height="100" relative="1" as="geometry">
            <mxPoint x="-120" y="210" as="sourcePoint" />
            <mxPoint x="10" y="160" as="targetPoint" />
            <Array as="points">
              <mxPoint x="20" y="220" />
            </Array>
          </mxGeometry>
        </mxCell>
        <mxCell id="FTGoRy-41MmsnWu28Xwo-58" value="" style="edgeStyle=entityRelationEdgeStyle;fontSize=12;html=1;endArrow=ERoneToMany;rounded=0;exitX=0;exitY=0;exitDx=0;exitDy=0;entryX=-0.012;entryY=0.112;entryDx=0;entryDy=0;entryPerimeter=0;" edge="1" parent="1" source="FTGoRy-41MmsnWu28Xwo-11">
          <mxGeometry width="100" height="100" relative="1" as="geometry">
            <mxPoint x="-1.0400000000000365" y="272.95399999999995" as="sourcePoint" />
            <mxPoint x="19.99999999999993" y="70.00199999999997" as="targetPoint" />
            <Array as="points">
              <mxPoint x="-28.08" y="227.01" />
            </Array>
          </mxGeometry>
        </mxCell>
        <mxCell id="FTGoRy-41MmsnWu28Xwo-61" value="" style="edgeStyle=entityRelationEdgeStyle;fontSize=12;html=1;endArrow=ERmany;rounded=0;entryX=0;entryY=0.5;entryDx=0;entryDy=0;" edge="1" parent="1" target="FTGoRy-41MmsnWu28Xwo-39">
          <mxGeometry width="100" height="100" relative="1" as="geometry">
            <mxPoint x="150" y="490" as="sourcePoint" />
            <mxPoint x="250" y="390" as="targetPoint" />
          </mxGeometry>
        </mxCell>
        <mxCell id="FTGoRy-41MmsnWu28Xwo-62" value="*" style="text;html=1;align=center;verticalAlign=middle;resizable=0;points=[];autosize=1;strokeColor=none;fillColor=none;" vertex="1" parent="1">
          <mxGeometry x="250" y="329" width="30" height="30" as="geometry" />
        </mxCell>
      </root>
    </mxGraphModel>
  </diagram>
  <diagram id="VNocXY5N1O20SapHrs5i" name="Страница — 2">
    <mxGraphModel dx="1820" dy="769" grid="1" gridSize="10" guides="1" tooltips="1" connect="1" arrows="1" fold="1" page="1" pageScale="1" pageWidth="827" pageHeight="1169" math="0" shadow="0">
      <root>
        <mxCell id="0" />
        <mxCell id="1" parent="0" />
        <mxCell id="AHddZpDL_KWhSJCxaZU4-1" value="Остановка" style="swimlane;fontStyle=0;childLayout=stackLayout;horizontal=1;startSize=26;horizontalStack=0;resizeParent=1;resizeParentMax=0;resizeLast=0;collapsible=1;marginBottom=0;align=center;fontSize=14;" vertex="1" parent="1">
          <mxGeometry x="10" y="70" width="160" height="116" as="geometry" />
        </mxCell>
        <mxCell id="AHddZpDL_KWhSJCxaZU4-36" value="*Номер маршрута" style="text;strokeColor=none;fillColor=none;spacingLeft=4;spacingRight=4;overflow=hidden;rotatable=0;points=[[0,0.5],[1,0.5]];portConstraint=eastwest;fontSize=12;whiteSpace=wrap;html=1;" vertex="1" parent="AHddZpDL_KWhSJCxaZU4-1">
          <mxGeometry y="26" width="160" height="30" as="geometry" />
        </mxCell>
        <mxCell id="AHddZpDL_KWhSJCxaZU4-2" value="*Название станции" style="text;strokeColor=none;fillColor=none;spacingLeft=4;spacingRight=4;overflow=hidden;rotatable=0;points=[[0,0.5],[1,0.5]];portConstraint=eastwest;fontSize=12;whiteSpace=wrap;html=1;" vertex="1" parent="AHddZpDL_KWhSJCxaZU4-1">
          <mxGeometry y="56" width="160" height="30" as="geometry" />
        </mxCell>
        <mxCell id="AHddZpDL_KWhSJCxaZU4-3" value="Адрес" style="text;strokeColor=none;fillColor=none;spacingLeft=4;spacingRight=4;overflow=hidden;rotatable=0;points=[[0,0.5],[1,0.5]];portConstraint=eastwest;fontSize=12;whiteSpace=wrap;html=1;" vertex="1" parent="AHddZpDL_KWhSJCxaZU4-1">
          <mxGeometry y="86" width="160" height="30" as="geometry" />
        </mxCell>
        <mxCell id="AHddZpDL_KWhSJCxaZU4-4" value="Маршрут" style="swimlane;fontStyle=0;childLayout=stackLayout;horizontal=1;startSize=26;horizontalStack=0;resizeParent=1;resizeParentMax=0;resizeLast=0;collapsible=1;marginBottom=0;align=center;fontSize=14;" vertex="1" parent="1">
          <mxGeometry x="10" y="220" width="160" height="206" as="geometry" />
        </mxCell>
        <mxCell id="AHddZpDL_KWhSJCxaZU4-5" value="*Номер маршрута" style="text;strokeColor=none;fillColor=none;spacingLeft=4;spacingRight=4;overflow=hidden;rotatable=0;points=[[0,0.5],[1,0.5]];portConstraint=eastwest;fontSize=12;whiteSpace=wrap;html=1;" vertex="1" parent="AHddZpDL_KWhSJCxaZU4-4">
          <mxGeometry y="26" width="160" height="30" as="geometry" />
        </mxCell>
        <mxCell id="AHddZpDL_KWhSJCxaZU4-6" value="Название маршрута" style="text;strokeColor=none;fillColor=none;spacingLeft=4;spacingRight=4;overflow=hidden;rotatable=0;points=[[0,0.5],[1,0.5]];portConstraint=eastwest;fontSize=12;whiteSpace=wrap;html=1;" vertex="1" parent="AHddZpDL_KWhSJCxaZU4-4">
          <mxGeometry y="56" width="160" height="30" as="geometry" />
        </mxCell>
        <mxCell id="AHddZpDL_KWhSJCxaZU4-7" value="Время выезда" style="text;strokeColor=none;fillColor=none;spacingLeft=4;spacingRight=4;overflow=hidden;rotatable=0;points=[[0,0.5],[1,0.5]];portConstraint=eastwest;fontSize=12;whiteSpace=wrap;html=1;" vertex="1" parent="AHddZpDL_KWhSJCxaZU4-4">
          <mxGeometry y="86" width="160" height="30" as="geometry" />
        </mxCell>
        <mxCell id="AHddZpDL_KWhSJCxaZU4-8" value="Время прибтия" style="text;strokeColor=none;fillColor=none;spacingLeft=4;spacingRight=4;overflow=hidden;rotatable=0;points=[[0,0.5],[1,0.5]];portConstraint=eastwest;fontSize=12;whiteSpace=wrap;html=1;" vertex="1" parent="AHddZpDL_KWhSJCxaZU4-4">
          <mxGeometry y="116" width="160" height="30" as="geometry" />
        </mxCell>
        <mxCell id="AHddZpDL_KWhSJCxaZU4-9" value="Время в пути" style="text;strokeColor=none;fillColor=none;spacingLeft=4;spacingRight=4;overflow=hidden;rotatable=0;points=[[0,0.5],[1,0.5]];portConstraint=eastwest;fontSize=12;whiteSpace=wrap;html=1;" vertex="1" parent="AHddZpDL_KWhSJCxaZU4-4">
          <mxGeometry y="146" width="160" height="30" as="geometry" />
        </mxCell>
        <mxCell id="AHddZpDL_KWhSJCxaZU4-10" value="Стоимость перевозки" style="text;strokeColor=none;fillColor=none;spacingLeft=4;spacingRight=4;overflow=hidden;rotatable=0;points=[[0,0.5],[1,0.5]];portConstraint=eastwest;fontSize=12;whiteSpace=wrap;html=1;" vertex="1" parent="AHddZpDL_KWhSJCxaZU4-4">
          <mxGeometry y="176" width="160" height="30" as="geometry" />
        </mxCell>
        <mxCell id="AHddZpDL_KWhSJCxaZU4-11" value="Автобус" style="swimlane;fontStyle=0;childLayout=stackLayout;horizontal=1;startSize=26;horizontalStack=0;resizeParent=1;resizeParentMax=0;resizeLast=0;collapsible=1;marginBottom=0;align=center;fontSize=14;" vertex="1" parent="1">
          <mxGeometry x="-330" y="250" width="160" height="100" as="geometry" />
        </mxCell>
        <mxCell id="AHddZpDL_KWhSJCxaZU4-12" value="*Гос.Номер" style="text;strokeColor=none;fillColor=none;spacingLeft=4;spacingRight=4;overflow=hidden;rotatable=0;points=[[0,0.5],[1,0.5]];portConstraint=eastwest;fontSize=12;whiteSpace=wrap;html=1;" vertex="1" parent="AHddZpDL_KWhSJCxaZU4-11">
          <mxGeometry y="26" width="160" height="30" as="geometry" />
        </mxCell>
        <mxCell id="AHddZpDL_KWhSJCxaZU4-41" value="Название модели автобуса" style="text;strokeColor=none;fillColor=none;spacingLeft=4;spacingRight=4;overflow=hidden;rotatable=0;points=[[0,0.5],[1,0.5]];portConstraint=eastwest;fontSize=12;whiteSpace=wrap;html=1;" vertex="1" parent="AHddZpDL_KWhSJCxaZU4-11">
          <mxGeometry y="56" width="160" height="44" as="geometry" />
        </mxCell>
        <mxCell id="AHddZpDL_KWhSJCxaZU4-13" value="Модель" style="swimlane;fontStyle=0;childLayout=stackLayout;horizontal=1;startSize=26;horizontalStack=0;resizeParent=1;resizeParentMax=0;resizeLast=0;collapsible=1;marginBottom=0;align=center;fontSize=14;" vertex="1" parent="1">
          <mxGeometry x="-330" y="410" width="160" height="116" as="geometry" />
        </mxCell>
        <mxCell id="AHddZpDL_KWhSJCxaZU4-14" value="*Название модели" style="text;strokeColor=none;fillColor=none;spacingLeft=4;spacingRight=4;overflow=hidden;rotatable=0;points=[[0,0.5],[1,0.5]];portConstraint=eastwest;fontSize=12;whiteSpace=wrap;html=1;" vertex="1" parent="AHddZpDL_KWhSJCxaZU4-13">
          <mxGeometry y="26" width="160" height="30" as="geometry" />
        </mxCell>
        <mxCell id="AHddZpDL_KWhSJCxaZU4-43" value="Марка бренда" style="text;strokeColor=none;fillColor=none;spacingLeft=4;spacingRight=4;overflow=hidden;rotatable=0;points=[[0,0.5],[1,0.5]];portConstraint=eastwest;fontSize=12;whiteSpace=wrap;html=1;" vertex="1" parent="AHddZpDL_KWhSJCxaZU4-13">
          <mxGeometry y="56" width="160" height="30" as="geometry" />
        </mxCell>
        <mxCell id="AHddZpDL_KWhSJCxaZU4-15" value="Количество мест" style="text;strokeColor=none;fillColor=none;spacingLeft=4;spacingRight=4;overflow=hidden;rotatable=0;points=[[0,0.5],[1,0.5]];portConstraint=eastwest;fontSize=12;whiteSpace=wrap;html=1;" vertex="1" parent="AHddZpDL_KWhSJCxaZU4-13">
          <mxGeometry y="86" width="160" height="30" as="geometry" />
        </mxCell>
        <mxCell id="AHddZpDL_KWhSJCxaZU4-16" value="Бренд" style="swimlane;fontStyle=0;childLayout=stackLayout;horizontal=1;startSize=26;horizontalStack=0;resizeParent=1;resizeParentMax=0;resizeLast=0;collapsible=1;marginBottom=0;align=center;fontSize=14;" vertex="1" parent="1">
          <mxGeometry x="-330" y="540" width="160" height="56" as="geometry" />
        </mxCell>
        <mxCell id="AHddZpDL_KWhSJCxaZU4-17" value="*Марка" style="text;strokeColor=none;fillColor=none;spacingLeft=4;spacingRight=4;overflow=hidden;rotatable=0;points=[[0,0.5],[1,0.5]];portConstraint=eastwest;fontSize=12;whiteSpace=wrap;html=1;" vertex="1" parent="AHddZpDL_KWhSJCxaZU4-16">
          <mxGeometry y="26" width="160" height="30" as="geometry" />
        </mxCell>
        <mxCell id="AHddZpDL_KWhSJCxaZU4-18" value="Рейс" style="swimlane;fontStyle=0;childLayout=stackLayout;horizontal=1;startSize=26;horizontalStack=0;resizeParent=1;resizeParentMax=0;resizeLast=0;collapsible=1;marginBottom=0;align=center;fontSize=14;" vertex="1" parent="1">
          <mxGeometry x="10" y="460" width="160" height="116" as="geometry" />
        </mxCell>
        <mxCell id="AHddZpDL_KWhSJCxaZU4-19" value="*Дата выезда" style="text;strokeColor=none;fillColor=none;spacingLeft=4;spacingRight=4;overflow=hidden;rotatable=0;points=[[0,0.5],[1,0.5]];portConstraint=eastwest;fontSize=12;whiteSpace=wrap;html=1;" vertex="1" parent="AHddZpDL_KWhSJCxaZU4-18">
          <mxGeometry y="26" width="160" height="30" as="geometry" />
        </mxCell>
        <mxCell id="AHddZpDL_KWhSJCxaZU4-39" value="*Номер маршрута" style="text;strokeColor=none;fillColor=none;spacingLeft=4;spacingRight=4;overflow=hidden;rotatable=0;points=[[0,0.5],[1,0.5]];portConstraint=eastwest;fontSize=12;whiteSpace=wrap;html=1;" vertex="1" parent="AHddZpDL_KWhSJCxaZU4-18">
          <mxGeometry y="56" width="160" height="30" as="geometry" />
        </mxCell>
        <mxCell id="AHddZpDL_KWhSJCxaZU4-45" value="*Гос.Номер автобуса" style="text;strokeColor=none;fillColor=none;spacingLeft=4;spacingRight=4;overflow=hidden;rotatable=0;points=[[0,0.5],[1,0.5]];portConstraint=eastwest;fontSize=12;whiteSpace=wrap;html=1;" vertex="1" parent="AHddZpDL_KWhSJCxaZU4-18">
          <mxGeometry y="86" width="160" height="30" as="geometry" />
        </mxCell>
        <mxCell id="AHddZpDL_KWhSJCxaZU4-20" value="Пассажир" style="swimlane;fontStyle=0;childLayout=stackLayout;horizontal=1;startSize=26;horizontalStack=0;resizeParent=1;resizeParentMax=0;resizeLast=0;collapsible=1;marginBottom=0;align=center;fontSize=14;" vertex="1" parent="1">
          <mxGeometry x="290" y="250" width="160" height="176" as="geometry" />
        </mxCell>
        <mxCell id="AHddZpDL_KWhSJCxaZU4-21" value="ID Пассажира" style="text;strokeColor=none;fillColor=none;spacingLeft=4;spacingRight=4;overflow=hidden;rotatable=0;points=[[0,0.5],[1,0.5]];portConstraint=eastwest;fontSize=12;whiteSpace=wrap;html=1;" vertex="1" parent="AHddZpDL_KWhSJCxaZU4-20">
          <mxGeometry y="26" width="160" height="30" as="geometry" />
        </mxCell>
        <mxCell id="AHddZpDL_KWhSJCxaZU4-22" value="ФИО" style="text;strokeColor=none;fillColor=none;spacingLeft=4;spacingRight=4;overflow=hidden;rotatable=0;points=[[0,0.5],[1,0.5]];portConstraint=eastwest;fontSize=12;whiteSpace=wrap;html=1;" vertex="1" parent="AHddZpDL_KWhSJCxaZU4-20">
          <mxGeometry y="56" width="160" height="30" as="geometry" />
        </mxCell>
        <mxCell id="AHddZpDL_KWhSJCxaZU4-23" value="Контактная инф-ция" style="text;strokeColor=none;fillColor=none;spacingLeft=4;spacingRight=4;overflow=hidden;rotatable=0;points=[[0,0.5],[1,0.5]];portConstraint=eastwest;fontSize=12;whiteSpace=wrap;html=1;" vertex="1" parent="AHddZpDL_KWhSJCxaZU4-20">
          <mxGeometry y="86" width="160" height="30" as="geometry" />
        </mxCell>
        <mxCell id="hMhEqw7TVcvJjN25j9Kf-1" value="Дата выезда рейса" style="text;strokeColor=none;fillColor=none;spacingLeft=4;spacingRight=4;overflow=hidden;rotatable=0;points=[[0,0.5],[1,0.5]];portConstraint=eastwest;fontSize=12;whiteSpace=wrap;html=1;" vertex="1" parent="AHddZpDL_KWhSJCxaZU4-20">
          <mxGeometry y="116" width="160" height="30" as="geometry" />
        </mxCell>
        <mxCell id="AHddZpDL_KWhSJCxaZU4-24" value="город проживания" style="text;strokeColor=none;fillColor=none;spacingLeft=4;spacingRight=4;overflow=hidden;rotatable=0;points=[[0,0.5],[1,0.5]];portConstraint=eastwest;fontSize=12;whiteSpace=wrap;html=1;" vertex="1" parent="AHddZpDL_KWhSJCxaZU4-20">
          <mxGeometry y="146" width="160" height="30" as="geometry" />
        </mxCell>
        <mxCell id="AHddZpDL_KWhSJCxaZU4-37" style="edgeStyle=orthogonalEdgeStyle;rounded=0;orthogonalLoop=1;jettySize=auto;html=1;exitX=0;exitY=0.5;exitDx=0;exitDy=0;entryX=0;entryY=0.5;entryDx=0;entryDy=0;" edge="1" parent="1" source="AHddZpDL_KWhSJCxaZU4-36" target="AHddZpDL_KWhSJCxaZU4-5">
          <mxGeometry relative="1" as="geometry" />
        </mxCell>
        <mxCell id="AHddZpDL_KWhSJCxaZU4-40" style="edgeStyle=orthogonalEdgeStyle;rounded=0;orthogonalLoop=1;jettySize=auto;html=1;exitX=0;exitY=0.5;exitDx=0;exitDy=0;entryX=0;entryY=0.5;entryDx=0;entryDy=0;" edge="1" parent="1" source="AHddZpDL_KWhSJCxaZU4-39" target="AHddZpDL_KWhSJCxaZU4-5">
          <mxGeometry relative="1" as="geometry">
            <Array as="points">
              <mxPoint x="-40" y="531" />
              <mxPoint x="-40" y="261" />
            </Array>
          </mxGeometry>
        </mxCell>
        <mxCell id="AHddZpDL_KWhSJCxaZU4-42" style="edgeStyle=orthogonalEdgeStyle;rounded=0;orthogonalLoop=1;jettySize=auto;html=1;exitX=0;exitY=0.5;exitDx=0;exitDy=0;entryX=0;entryY=0.5;entryDx=0;entryDy=0;" edge="1" parent="1" source="AHddZpDL_KWhSJCxaZU4-14" target="AHddZpDL_KWhSJCxaZU4-41">
          <mxGeometry relative="1" as="geometry" />
        </mxCell>
        <mxCell id="AHddZpDL_KWhSJCxaZU4-44" style="edgeStyle=orthogonalEdgeStyle;rounded=0;orthogonalLoop=1;jettySize=auto;html=1;exitX=0;exitY=0.5;exitDx=0;exitDy=0;entryX=0;entryY=0.5;entryDx=0;entryDy=0;" edge="1" parent="1" source="AHddZpDL_KWhSJCxaZU4-43" target="AHddZpDL_KWhSJCxaZU4-17">
          <mxGeometry relative="1" as="geometry" />
        </mxCell>
        <mxCell id="AHddZpDL_KWhSJCxaZU4-46" style="edgeStyle=orthogonalEdgeStyle;rounded=0;orthogonalLoop=1;jettySize=auto;html=1;exitX=0;exitY=0.5;exitDx=0;exitDy=0;entryX=1;entryY=0.5;entryDx=0;entryDy=0;" edge="1" parent="1" source="AHddZpDL_KWhSJCxaZU4-45" target="AHddZpDL_KWhSJCxaZU4-12">
          <mxGeometry relative="1" as="geometry" />
        </mxCell>
        <mxCell id="hMhEqw7TVcvJjN25j9Kf-2" style="edgeStyle=orthogonalEdgeStyle;rounded=0;orthogonalLoop=1;jettySize=auto;html=1;exitX=0;exitY=0.5;exitDx=0;exitDy=0;entryX=1;entryY=0.5;entryDx=0;entryDy=0;" edge="1" parent="1" source="hMhEqw7TVcvJjN25j9Kf-1" target="AHddZpDL_KWhSJCxaZU4-19">
          <mxGeometry relative="1" as="geometry" />
        </mxCell>
      </root>
    </mxGraphModel>
  </diagram>
</mxfile>
